<svg width="500" height="500" viewBox="0 0 500 500" fill="none" xmlns="http://www.w3.org/2000/svg">
<path d="M138.785 312.184C119.026 308.38 99.5911 305.249 80.491 300.626C66.2176 297.171 51.961 292.815 38.479 286.927C28.3948 282.523 18.9804 275.804 10.2932 268.752C-4.5985 256.663 -1.83874 240.376 9.08852 228.935C14.4153 223.357 20.921 218.615 27.6173 214.908C42.9249 206.431 59.484 201.311 76.1804 196.415C100.042 189.418 124.352 186.05 148.924 183.793C156.918 183.059 164.823 181.332 172.794 180.258C176.167 179.804 179.636 179.491 183.005 179.79C186.697 180.118 189.557 182.326 189.973 186.437C190.397 190.613 187.961 193.276 184.327 194.23C180.033 195.357 175.597 195.909 171.213 196.652C155.018 199.399 138.673 201.422 122.657 205.025C100.926 209.913 80.811 219.547 61.5453 230.912C48.2558 238.751 47.0589 255.658 59.8877 264.059C70.4794 270.995 82.0071 277.384 93.9693 280.863C121.116 288.756 148.787 294.701 176.241 301.456C178.896 302.11 181.91 302.288 184.051 303.781C186.028 305.159 188.125 307.981 188.176 310.217C188.22 312.145 185.788 315.262 183.869 315.87C180.226 317.023 176.098 317.398 172.293 316.958C161.248 315.68 150.262 313.838 138.785 312.184ZM39.5468 221.23C39.5468 221.23 39.5703 221.252 38.8335 221.286C30.5893 226.048 22.2151 230.585 14.1443 235.645C8.23817 239.348 6.49703 244.721 8.21301 251.118C10.3981 259.263 13.5022 262.363 20.4907 262.95C20.4907 262.95 20.9769 263.004 21.1358 263.712C25.885 266.294 30.6343 268.876 35.967 271.749C37.1885 273.016 38.41 274.283 39.8621 276.244C47.2509 283.766 56.3635 287.178 67.3415 288.347C75.473 288.78 83.5273 289.578 91.182 294.409C93.773 295.993 96.2845 298.747 98.97 298.944C107.156 299.546 115.408 299.163 122.245 299.163C113.329 294.444 101.019 298.041 90.6018 291.025C85.6017 289.046 80.6016 287.066 75.4098 284.388C68.892 280.813 62.3742 277.238 55.1374 273.593C53.3293 271.848 51.5213 270.103 49.5084 267.648C46.4006 265.608 43.4645 263.176 40.1493 261.611C33.1674 258.314 29.829 250.904 34.1155 245.885C43.085 235.384 50.9155 223.334 65.2624 219.461C68.4691 218.595 71.4575 216.471 74.2756 214.507C83.911 207.79 93.5394 201.182 105.368 199.266C107.924 198.852 110.379 197.765 113.326 196.85C112.444 196.099 112.166 195.693 111.99 195.737C100.948 198.471 89.8314 200.939 78.9332 204.197C75.7563 205.147 73.2059 208.359 69.5517 210.531C66.744 211.249 63.9363 211.967 60.7248 212.15C59.8053 212.637 58.8859 213.125 57.3068 213.657C56.8661 213.663 56.4255 213.668 55.6616 213.206C55.0787 213.413 54.4958 213.62 53.2673 213.836C52.8369 213.838 52.4064 213.839 51.1219 213.768C44.6311 214.093 40.4702 216.79 39.5468 221.23Z" fill="#42536F"/>
<path d="M467.27 284.506C440.996 297.631 413.151 303.245 385.013 307.699C365.591 310.774 346.166 313.835 326.715 316.703C323.569 317.167 319.961 317.419 317.156 316.246C314.766 315.247 311.983 312.22 311.685 309.785C311.428 307.675 313.944 304.296 316.086 303.001C318.753 301.39 322.275 301.217 325.464 300.642C346.509 296.842 367.651 293.552 388.589 289.203C405.991 285.588 422.248 278.525 436.972 268.001C437.818 267.397 438.674 266.804 439.49 266.157C453.067 255.389 452.98 241.428 439.3 230.875C428.551 222.583 416.381 217.32 403.611 213.784C384.945 208.616 366.157 203.89 347.322 199.432C339.36 197.548 331.144 196.829 323.045 195.567C321.194 195.279 319.287 195.148 317.516 194.576C313.454 193.265 310.033 190.904 311.081 185.86C312.054 181.177 315.655 179.481 320.078 179.78C324.515 180.08 328.959 180.372 333.377 180.889C374.589 185.705 415.233 193.491 454.818 206.573C469.55 211.442 482.444 219.419 493.281 231.182C503.99 242.807 501.311 263.29 489.407 270.324C481.987 274.709 474.863 279.633 467.27 284.506ZM463.892 273.544C463.892 273.544 463.895 273.549 464.645 273.553C468.834 269.832 472.67 265.521 477.295 262.528C484.373 257.947 485.982 251.606 485.562 243.604C485.097 234.733 481.521 229.369 472.444 226.264C458.651 219.926 444.858 213.588 430.913 206.518C427.472 205.062 424.031 203.606 419.961 202.133C419.541 202.121 419.121 202.11 418.341 201.525C417.717 201.383 417.094 201.24 415.624 201.053C412.88 200.672 410.136 200.291 406.807 199.273C399.392 198.415 391.899 197.995 384.588 196.567C378.276 195.334 372.195 192.86 365.958 191.148C364.367 190.711 362.57 191.082 360.868 191.082C366.263 195.92 393.933 201.979 405.814 202.587C412.829 205.973 419.845 209.358 426.961 213.476C433.972 221.15 443.385 224.159 453.183 227.991C459.937 231.136 465.823 235.116 466.74 244.241C465.47 246.331 464.285 248.483 462.914 250.498C459.3 255.81 455.875 261.297 451.858 266.264C448.539 270.367 445.029 274.879 440.634 277.34C432.56 281.862 423.752 284.96 415.301 288.773C413.885 289.412 412.725 290.663 410.632 291.689C405.732 293.097 400.833 294.505 395.089 295.933C383.998 296.835 358.614 303.569 356.516 306.44C357.749 306.381 358.742 306.456 359.688 306.269C369.983 304.242 380.283 302.243 390.551 300.077C393.837 299.384 397.03 298.218 401.186 297.182C406.005 296.406 411.034 296.287 415.594 294.708C423.284 292.044 430.677 288.455 438.654 285.815C443.689 284.601 449.033 284.105 453.664 281.952C457.511 280.163 460.518 276.424 463.892 273.544Z" fill="#42546F"/>
<path d="M246.621 370.076C248.296 370.471 250.118 370.643 250.911 371.671C263.49 387.995 278.201 402.71 286.685 422.156C292.596 435.701 297.537 449.269 293.696 464.748C288.87 484.201 273.115 498.043 253.835 499.767C233.926 501.548 219.399 493.073 210.312 475.256C202.759 460.446 204.217 444.68 210.777 429.984C215.712 418.926 222.332 408.65 228.549 398.249C234.22 388.76 240.358 379.572 246.621 370.076ZM229.115 456.109C229.115 456.109 230.653 456.923 230.656 457.711C233.149 463.277 234.437 468.892 235.868 474.739C238.466 485.357 251.867 490.729 259.506 488.973C272.538 485.977 281.243 477.649 284.443 464.341C285.85 458.491 287.77 450.953 282.847 446.155C277.095 440.55 275.311 434.545 275.664 426.777C275.785 424.127 274.051 420.022 271.984 418.873C264.37 414.641 261.019 408.12 259.974 399.694C259.463 395.573 257.698 391.959 253.498 391.128C248.689 390.176 243.905 391.419 241.309 395.95C238.917 400.126 236.815 404.858 236.081 409.596C234.87 417.403 232.122 423.736 226.547 428.351C215.419 437.561 216.183 449.959 229.115 456.109Z" fill="#41526E"/>
<path d="M234.358 2.91863C251.626 -2.39061 267.47 -1.19986 280.257 12.7259C293.476 27.1235 294.615 44.1954 288.549 62.2969C287.654 64.9671 286.671 67.7088 285.187 70.0457C273.999 87.66 262.675 105.181 250.965 123.398C249.333 121.267 248.354 120.113 247.506 118.863C238.247 105.21 228.761 91.7131 219.834 77.8285C211.336 64.6115 206.615 50.1697 209.819 33.981C212.71 19.3751 220.748 9.00065 234.358 2.91863ZM264.049 25.3181C260.108 22.8945 256.331 19.2084 252.286 16.9897C239.522 9.98831 233.835 10.1454 225.185 20.2825C218.702 27.8793 218.761 38.5267 225.6 45.6796C232.565 52.964 237.266 60.527 233.112 71.6326C230.8 77.8124 232.902 82.2768 237.89 83.8962C246.703 86.7575 248.839 93.5627 249.205 101.919C249.278 103.582 250.008 105.214 250.435 106.86C251.204 106.908 251.973 106.956 252.743 107.004C253.601 103.081 255.152 99.1638 255.181 95.2342C255.254 85.2299 258.792 77.7864 267.645 73.3033C269.287 72.4722 270.914 71.2313 272.049 69.7628C279.87 59.6393 283.137 48.3753 281.002 35.4606C279.997 29.3792 278.629 24.365 270.728 25.3181C268.669 25.287 266.545 25.9313 264.049 25.3181Z" fill="#41526E"/>
<path d="M160.153 258.326C171.556 265.929 183.884 270.083 196.587 273.048C200.922 274.06 204.07 275.734 204.426 280.636C204.736 284.898 201.421 288.858 196.163 289.096C189.746 289.387 183.098 289.328 176.868 287.911C161.031 284.309 145.16 280.557 129.729 275.47C121.963 272.911 114.623 268.022 107.988 262.925C98.8703 255.921 98.6233 244.125 106.176 235.28C114.022 226.091 124.4 221.159 135.352 218.441C153.936 213.829 172.81 210.464 191.605 206.81C194.174 206.311 197.314 206.457 199.595 207.593C201.778 208.681 204.312 211.286 204.614 213.526C204.905 215.691 203.075 218.952 201.218 220.446C198.764 222.421 195.402 223.214 192.386 224.394C183.482 227.879 174.518 231.2 165.668 234.826C163.5 235.714 161.558 237.367 159.725 238.938C151.409 246.063 151.471 250.932 160.153 258.326ZM170.404 272.404C169.613 272.042 168.823 271.679 167.881 270.59C163.183 267.49 158.325 264.62 153.823 261.238C146.416 255.674 144.867 245.488 150.72 238.874C154.126 235.026 158.104 231.025 162.618 229.081C172.001 225.042 181.927 222.376 191.593 219.032C194.06 218.178 196.391 216.901 198.785 215.819C198.624 215.317 198.464 214.816 198.304 214.315C197.701 214.131 197.088 213.755 196.499 213.793C192.091 214.075 187.68 214.356 183.285 214.792C162.181 216.887 141.42 220.592 122.272 230.636C117.673 233.048 113.353 236.357 109.538 239.975C104.898 244.375 105.354 251.22 109.526 256.111C116.031 263.738 124.683 267.417 133.588 270.632C151.496 277.096 170.038 280.627 188.79 283.02C191.639 283.383 194.626 282.587 197.55 282.328C197.584 281.579 197.618 280.83 197.652 280.081C192.101 278.292 186.577 276.401 180.988 274.751C177.731 273.79 174.368 273.216 170.404 272.404Z" fill="#455672"/>
<path d="M329.704 285.549C321.626 286.481 313.989 287.372 306.338 288.098C304.671 288.256 302.486 288.439 301.355 287.523C299.117 285.711 296.239 283.31 295.919 280.832C295.656 278.794 298.238 275.28 300.385 274.208C304.954 271.927 310.164 271.085 314.923 269.155C323.655 265.615 332.487 262.199 340.84 257.831C349.899 253.094 350.436 244.316 342.696 237.273C335.515 230.739 326.496 228.311 317.665 225.591C312.597 224.03 307.389 222.954 302.239 221.678C299.075 220.894 296.131 219.715 296.217 215.644C296.309 211.252 299.407 209.19 302.957 208.947C307.693 208.623 312.512 209.055 317.257 209.556C338.762 211.826 360.013 215.584 379.666 225.37C385.488 228.27 390.836 232.939 395.291 237.879C401.062 244.279 400.558 251.175 395.474 258.199C390.902 264.514 384.667 268.383 377.888 271.579C362.653 278.764 346.384 282.048 329.704 285.549ZM347.788 273.544C351.929 272.474 355.52 270.883 360.118 270.341C369.513 268.295 378.603 266.138 386.246 260.015C396.649 251.682 396.73 242.198 385.445 235.17C377.675 230.331 368.937 227.131 360.508 223.509C358.209 222.521 355.464 222.654 352.26 222.249C351.819 222.206 351.378 222.164 350.79 221.471C349.789 221.382 348.787 221.293 347.113 221.209C346.665 221.193 346.217 221.178 345.604 220.407C342.906 219.963 340.207 219.52 336.838 219.075C336.391 219.054 335.945 219.033 335.299 218.22C328.595 216.823 321.929 215.141 315.17 214.138C311.183 213.546 307.048 214.03 302.546 214.03C303.179 215.372 303.266 215.898 303.48 215.961C313.671 218.964 323.873 221.928 334.079 224.876C334.156 224.898 334.308 224.637 335.132 224.577C338.315 226.679 341.497 228.782 344.801 231.592C345.091 232.014 345.3 232.549 345.682 232.842C358.08 242.39 356.433 256.647 342.846 263.689C333.778 268.389 324.108 271.857 314.629 275.667C310.371 277.378 305.922 278.577 301.56 280.008C301.607 280.519 301.654 281.029 301.701 281.54C302.648 282.052 303.618 283.043 304.54 282.997C309.446 282.75 314.375 282.487 319.225 281.733C321.981 281.305 324.827 279.334 328.266 278.348C329.025 278.331 329.555 278.905 330.803 279.47C334.53 278.822 338.304 278.371 341.965 277.439C343.689 277 345.289 274.519 347.788 273.544Z" fill="#465873"/>
<path d="M226.967 264.552C219.564 252.896 220.136 241.474 226.643 230.134C231.924 220.93 246.531 216.239 257.745 219.438C271.265 223.294 277.393 236.71 277.608 246.815C277.871 259.233 270.492 270.526 259.193 274.83C247.468 279.295 235.542 275.581 226.967 264.552ZM231.142 250.914C231.434 251.934 231.693 252.966 232.025 253.972C235.581 264.741 246.904 270.374 256.791 266.303C267.053 262.079 271.734 249.824 267.085 239.355C263.554 231.404 254.452 226.719 246.266 228.639C236.422 230.947 230.66 238.996 231.142 250.914Z" fill="#435671"/>
<path d="M255.49 352.906C251.876 359.578 251.006 360.133 246.913 354.227C241.079 345.808 235.588 336.903 231.467 327.489C226.126 315.291 235.945 301.909 244.446 297.781C249.599 295.279 254.718 295.696 259.583 298.97C270.898 306.585 274.526 318.841 268.308 331.934C264.858 339.2 259.945 345.717 255.49 352.906ZM259.583 308.776C257.306 303.874 254.458 302.579 249.665 303.437C242.29 304.758 236.116 311.228 235.769 319.025C235.184 332.184 244.362 340.182 250.867 350.303C256.185 342.331 260.451 334.308 264.049 325.858C265.661 322.073 266.442 317.614 261.994 313.046C261.058 311.819 260.608 310.75 259.583 308.776Z" fill="#475974"/>
<path d="M269.997 168.617C270.216 173.573 271.188 178.328 270.235 182.622C267.501 194.941 255.72 201.976 244.4 198.771C233.607 195.715 227.423 183.169 230.899 171.034C231.718 168.172 232.984 165.404 234.35 162.763C237.902 155.901 241.694 149.173 245.249 142.313C247.195 138.556 249.467 137.79 252.387 141.017C259.668 149.063 266.636 157.343 269.997 168.617ZM250.274 148.341C249.95 148.313 249.424 148.139 249.33 148.279C243.209 157.384 236.244 166.189 234.933 177.67C234.016 185.697 240.956 193.165 248.231 193.516C263.933 194.273 267.296 183.812 265.105 171.479C263.429 162.043 257.533 155.019 250.274 148.341Z" fill="#475974"/>
<path d="M51.8765 213.756C52.3069 213.755 53.4177 213.756 53.9314 213.222C54.9589 212.688 55.76 212.77 56.2721 213.222C57.0138 213.756 57.0138 213.674 58.327 213.222C59.5825 212.688 59.7919 212.495 60.61 212.154C63.1739 211.086 67.0867 210.935 70.1429 210.553C63.9756 214.773 57.3309 218.7 51.1287 222.923C42.6945 228.666 34.8244 235.251 30.4887 245.078C25.9814 255.294 31.1833 265.379 41.4734 267.04C44.3125 267.498 47.2653 267.767 50.1073 268.205C50.1073 267.04 53.6149 271.848 55.8561 273.987C61.5576 280.448 68.3652 282.422 75.794 284.22C80.7941 286.199 86.0533 288.52 91.2061 291.16C91.3483 292.277 91.2165 293.906 91.2061 294.362C83.8575 290.224 75.7584 289.294 67.0605 288.49C64.1361 286.441 61.4373 284.815 59.0688 283.152C53.1703 279.013 47.675 276.603 40.3463 276.746C39.1248 275.479 37.0791 273.16 35.437 271.408C30.3001 268.332 25.9787 265.596 21.2625 263.004C21.2625 263.004 20.7763 262.95 20.3921 262.583C19.2853 260.255 17.307 258.348 17.4563 256.461C17.8653 251.291 18.751 246.146 18.9974 240.981C19.1787 237.18 21.4155 235.092 24.6485 233.507C30.5378 230.621 36.541 227.951 39.5468 221.229C39.5468 221.229 39.6689 220.683 40.0606 220.696C44.3342 218.236 47.9945 216.227 51.8765 213.756Z" fill="#4C91AA"/>
<path d="M49.8218 268.205C47.0823 268.122 44.0271 267.498 41.188 267.04C30.8979 265.379 25.696 255.294 30.2033 245.078C34.539 235.251 42.4091 228.666 50.8433 222.923C57.0455 218.7 62.7681 214.772 69.3438 210.553C72.3411 208.043 75.7565 205.147 78.9334 204.197C89.8316 200.939 100.949 198.471 111.99 195.737C112.166 195.693 112.444 196.099 113.326 196.85C110.38 197.765 107.924 198.852 105.369 199.266C93.5396 201.182 83.9112 207.79 74.2758 214.506C71.4577 216.471 68.4693 218.595 65.2625 219.461C50.9157 223.334 43.0852 235.384 34.1157 245.885C29.8292 250.904 33.1675 258.314 40.1495 261.611C43.4647 263.176 50.3356 267.138 49.8218 268.205Z" fill="#46648E"/>
<path d="M40.0605 220.162C39.0331 227.635 30.8133 231.906 24.6184 233.891C21.3854 235.476 20.0429 237.117 19.8617 240.917C19.6153 246.082 18.1039 251.173 17.6949 256.344C17.5456 258.231 19.675 260.566 20.5386 262.867C13.3463 262.867 9.23643 259.664 8.21286 251.118C6.49687 244.721 8.23801 239.348 14.1442 235.645C22.2149 230.585 31.327 224.432 40.0605 220.162Z" fill="#45638F"/>
<path d="M39.5469 275.679C47.7666 274.611 53.4177 278.348 59.1327 282.572C61.5012 284.235 65.2336 286.355 67.2886 288.49C57.3252 287.727 40.5743 282.084 39.5469 275.679Z" fill="#46648E"/>
<path d="M90.9204 294.362C90.7778 293.559 90.8812 291.959 90.9205 291.159C101.003 297.198 113.329 294.444 122.245 299.163C115.408 299.163 107.156 299.546 98.9699 298.944C96.2844 298.747 93.6645 296.293 90.9204 294.362Z" fill="#46618A"/>
<path d="M75.5084 284.22C68.1754 282.772 60.3009 279.97 54.959 273.543C61.6375 276.213 68.8948 280.295 75.5084 284.22Z" fill="#46648E"/>
<path d="M51.8765 213.756C53.9316 214.144 43.8089 218.757 39.5469 221.229C38.1163 216.933 46.2255 212.688 51.8765 213.756Z" fill="#45638F"/>
<path d="M19.5112 262.333C24.1348 262.934 31.1056 268.478 35.9508 271.408C37.492 274.611 15.4013 261.799 19.5112 262.333Z" fill="#45638F"/>
<path d="M431.527 206.816C445.32 213.154 459.519 219.615 473.653 226.568C475.087 233.294 474.001 239.217 479.818 243.65C485.089 247.666 485.469 251.123 479.818 256.461C474.489 262.17 471.598 268.205 465.433 273.544C465.433 273.544 464.251 274.576 463.892 274.611C458.755 279.416 454.131 282.618 446.939 284.22C444.973 285.126 442.315 285.288 440.048 285.821C432.531 289.022 423.284 292.044 415.594 294.708C411.034 296.287 405.858 296.82 400.189 297.565C398.155 297.132 396.236 296.367 395.052 295.964C399.951 294.556 405.771 292.578 411.491 291.16C416.712 289.795 421.367 289.576 425.416 287.487C436.366 281.838 447.126 275.767 457.781 269.532C461.296 267.474 464.596 264.739 467.408 261.723C472.655 256.094 471.705 249.345 466.461 244.184C464.92 236.71 459.283 231.798 452.076 228.169C447.589 224.026 444.617 218.95 440.048 216.279C436.225 214.043 431.341 214.857 426.903 213.756C419.887 210.371 411.942 207.007 404.813 203.08C405.301 202.006 406.779 199.874 407.381 199.343C410.125 199.724 412.872 200.25 416.115 200.944C417.307 201.397 417.99 201.338 418.684 201.478C419.694 201.478 419.884 201.799 420.739 202.012C425.203 203.125 428.108 205.355 431.527 206.816Z" fill="#4C90A9"/>
<path d="M466.461 244.184C471.87 249.006 472.655 256.094 467.408 261.723C464.596 264.739 461.296 267.474 457.781 269.532C447.126 275.767 436.366 281.838 425.416 287.487C421.367 289.576 416.304 289.824 411.491 291.16C412.357 290.173 413.885 289.412 415.301 288.773C423.753 284.96 432.56 281.862 440.635 277.34C445.03 274.879 448.539 270.367 451.858 266.264C455.875 261.297 459.3 255.81 462.914 250.498C464.286 248.483 465.026 246.612 466.461 244.184Z" fill="#46658F"/>
<path d="M465.433 273.544C470.386 267.832 474.549 262.128 479.878 256.419C484.656 251.301 484.843 248.596 479.572 244.58C473.755 240.147 474.765 233.122 473.653 226.568C482.066 228.886 485.097 234.733 485.562 243.604C485.981 251.606 484.373 257.947 477.295 262.528C472.669 265.521 469.997 269.825 465.433 273.544Z" fill="#46658F"/>
<path d="M407.895 199.343C410.243 199.701 407.895 204.147 405.84 203.079C394.345 203.288 366.263 195.92 360.868 191.082C362.57 191.082 364.367 190.711 365.958 191.148C372.195 192.86 378.276 195.334 384.588 196.567C391.899 197.995 400.188 198.167 407.895 199.343Z" fill="#46628B"/>
<path d="M395.565 295.43C397.171 295.823 400.156 296.555 401.73 297.031C398.884 298.054 393.836 299.383 390.551 300.076C380.283 302.243 369.982 304.242 359.688 306.269C358.742 306.455 357.749 306.381 356.516 306.44C358.614 303.569 384.052 296.342 395.565 295.43Z" fill="#46618A"/>
<path d="M424.848 212.688C429.236 213.423 436.225 214.043 440.048 216.279C444.617 218.95 447.916 224.175 452.076 228.169C443.058 224.971 431.909 220.728 424.848 212.688Z" fill="#46658F"/>
<path d="M437.178 286.889C438.889 285.643 442.054 283.272 444.02 282.366C450.395 279.427 458.686 276.491 465.433 273.543C462.415 276.386 457.511 280.162 453.664 281.952C449.033 284.105 442.442 285.955 437.178 286.889Z" fill="#46658F"/>
<path d="M430.989 206.884C429.472 207.35 415.087 201.478 416.115 200.944C419.197 200.411 433.582 206.816 430.989 206.884Z" fill="#46628B"/>
<path d="M418.521 201.811C418.008 201.959 417.314 201.819 416.546 201.389C417.094 201.24 417.717 201.382 418.521 201.811Z" fill="#46628B"/>
<path d="M228.571 457.203C215.668 451.027 214.239 436.934 225.367 427.724C230.943 423.109 234.87 417.403 236.08 409.596C236.815 404.858 238.917 400.126 241.309 395.95C243.905 391.419 248.689 390.176 253.498 391.128C257.698 391.959 259.463 395.573 259.974 399.695C261.019 408.12 264.37 414.642 271.984 418.873C274.051 420.022 275.785 424.127 275.664 426.777C275.311 434.545 277.095 440.551 282.846 446.155C287.77 450.953 285.85 458.491 284.443 464.341C281.243 477.649 272.538 485.977 259.506 488.973C251.867 490.729 238.466 485.357 235.868 474.74C234.437 468.892 230.776 463 228.601 457.177C234.766 459.846 238.876 466.252 238.005 473.661C238.8 479.424 241.851 480.59 246.42 477.221C250.308 474.354 254.06 472.375 259.202 474C261.103 474.601 264.982 473.365 265.714 471.819C266.684 469.772 265.643 466.554 265.07 463.932C264.84 462.877 263.531 462.097 262.767 461.145C258.507 455.828 255.896 449.789 258.731 443.096C262.116 435.108 260.903 427.728 258.053 420.069C256.326 415.427 254.63 410.396 249.186 410.473C244.084 410.546 241.935 415.173 239.632 419.6C237.12 424.431 233.783 429.033 229.977 432.84C225.436 437.383 223.239 442.618 225.218 448.999C226.092 451.815 227.439 454.473 228.571 457.203Z" fill="#45638F"/>
<path d="M270.728 24.7843C277.76 23.7856 280.59 29.0827 281.596 35.1641C283.73 48.0788 279.87 59.6394 272.049 69.7629C270.915 71.2314 269.287 72.4723 267.646 73.3034C258.792 77.7866 255.255 85.2301 255.181 95.2344C255.153 99.1639 253.601 103.081 252.743 107.004C251.974 106.956 251.204 106.908 250.435 106.86C250.008 105.214 249.279 103.582 249.206 101.919C248.839 93.5628 246.703 86.7576 237.89 83.8963C232.903 82.2769 230.8 77.8126 233.112 71.6327C237.266 60.5271 232.565 52.9641 225.601 45.6797C218.761 38.5268 218.702 27.8794 225.185 20.2827C233.836 10.1455 239.523 9.98842 252.287 16.9898C256.331 19.2085 261.714 21.7771 265.59 24.7843C264.864 25.5049 262.59 25.9463 262.024 25.7637C256.548 23.9974 251.059 22.257 245.662 20.2507C241.811 18.8188 238.934 19.0731 236.504 23.0828C231.817 30.8137 232.394 40.4752 239.005 46.6755C244.001 51.3608 245.005 56.5339 243.264 62.9377C242.251 66.6603 241.536 70.5109 241.115 74.3546C240.723 77.9339 240.686 81.7652 245.486 82.421C251.617 83.2585 254.869 78.6827 257.908 74.5139C260.655 70.7461 261.988 66.3904 258.854 61.7498C256.41 58.1311 255.433 54.1778 257.138 49.7024C259.023 44.7571 262.906 42.4596 267.21 40.5123C279.33 35.028 278.448 34.8571 270.728 24.7843Z" fill="#45638F"/>
<path d="M271.172 24.9264C279.328 35.0221 279.33 35.0277 267.209 40.512C262.906 42.4593 259.023 44.7568 257.138 49.7021C255.433 54.1775 256.41 58.1308 258.854 61.7495C261.988 66.3901 260.655 70.7458 257.908 74.5136C254.868 78.6824 251.617 83.2582 245.486 82.4207C240.686 81.7649 240.723 77.9336 241.115 74.3543C241.536 70.5106 242.251 66.66 243.264 62.9374C245.005 56.5336 244.001 51.3605 239.005 46.6752C232.394 40.4749 231.817 30.8134 236.504 23.0825C238.934 19.0728 241.811 18.8185 245.662 20.2504C251.059 22.2567 256.548 23.9971 262.024 25.7634C262.59 25.946 263.334 25.5324 264.279 25.103C266.621 24.8414 268.68 24.8725 271.172 24.9264Z" fill="#4C94AB"/>
<path d="M171.053 272.468C174.368 273.216 177.731 273.79 180.988 274.751C186.577 276.401 192.101 278.292 197.652 280.081C197.618 280.83 197.584 281.579 197.55 282.328C194.626 282.587 191.639 283.383 188.79 283.019C170.038 280.627 151.496 277.096 133.588 270.631C124.683 267.417 116.031 263.738 109.526 256.111C105.354 251.22 104.898 244.375 109.538 239.975C113.353 236.357 117.673 233.048 122.272 230.636C141.419 220.592 162.181 216.887 183.285 214.792C187.68 214.356 192.091 214.075 196.499 213.793C197.088 213.755 197.701 214.13 198.304 214.314C198.464 214.816 198.624 215.317 198.785 215.819C196.391 216.901 194.06 218.178 191.593 219.032C181.927 222.376 172.001 225.042 162.618 229.081C158.104 231.025 154.126 235.026 150.72 238.874C144.867 245.488 146.416 255.674 153.823 261.238C158.325 264.62 166.675 269.016 171.053 272.468C161.716 269.825 149.218 265.263 140.185 262.322C134.167 260.363 132.119 254.171 135.835 248.855C137.233 246.856 138.969 245.048 140.045 242.882C142.932 237.073 147.301 233.368 153.056 230.732C160.555 227.296 167.739 223.117 175.058 219.258C174.986 218.825 174.913 218.393 174.84 217.96C166.702 219.96 158.423 221.497 150.471 224.111C144.547 226.059 138.469 228.584 133.525 232.358C128.987 235.824 125.022 239.746 119.416 241.563C113.972 243.327 113.079 248.88 117.091 253.248C118.268 254.53 119.957 255.678 120.439 257.217C123.191 265.99 130.284 266.336 137.301 267.183C140.643 267.586 144.399 267.664 147.151 269.338C155.643 274.502 164.845 275.768 174.474 276.362C173.246 274.964 172.15 273.716 171.053 272.468Z" fill="#45638E"/>
<path d="M171.063 272.476C172.484 273.756 173.246 274.964 174.474 276.362C164.845 275.768 155.643 274.502 147.151 269.338C144.399 267.664 140.643 267.586 137.301 267.183C130.284 266.336 123.19 265.99 120.439 257.217C119.957 255.678 118.268 254.53 117.091 253.248C113.079 248.88 113.972 243.327 119.416 241.563C125.022 239.746 128.987 235.824 133.525 232.358C138.469 228.584 144.546 226.059 150.471 224.111C158.423 221.497 166.702 219.96 174.84 217.96C174.913 218.393 174.986 218.825 175.058 219.258C167.739 223.117 160.555 227.296 153.056 230.732C147.301 233.368 142.932 237.073 140.045 242.882C138.969 245.048 137.233 246.856 135.835 248.855C132.118 254.171 134.167 260.363 140.185 262.322C149.218 265.263 158.223 268.298 167.636 271.305C168.823 271.679 169.948 272.082 171.063 272.476Z" fill="#4C93AB"/>
<path d="M345.769 221.162C346.217 221.178 346.665 221.193 347.665 221.491C349.124 221.889 350.03 222.005 350.937 222.122C351.378 222.164 351.958 221.946 352.925 222.297C358.624 227.17 364.342 230.159 371.155 231.131C373.069 231.404 375.403 233.566 376.299 235.488C378.549 240.317 379.949 245.564 381.953 250.53C383.811 255.136 382.877 257.194 378.336 258.715C375.492 259.668 372.604 260.916 370.183 262.69C366.618 265.302 363.453 268.501 360.117 271.451C355.976 272.521 351.835 273.59 346.78 274.639C340.219 274.222 334.769 274.599 330.314 278.888C329.555 278.905 328.797 278.922 327.26 278.917C324.558 278.402 322.635 277.908 320.711 277.414C325.991 274.467 331.325 273.254 336.307 271.146C341.772 268.833 346.784 265.372 352.237 263.021C356.279 261.277 358.757 258.989 359.22 254.264C359.547 250.934 360.499 248.007 364.308 246.485C368.004 245.008 368.259 240.819 364.811 238.544C358.698 234.51 351.714 229.597 343.678 230.838C340.496 228.736 339.197 227.421 335.458 224.966C331.17 222.964 325.834 220.743 322.101 219.094C321.381 218.73 322.615 217.493 323.072 217.925C327.214 218.288 331.356 218.65 335.499 219.012C335.945 219.033 336.392 219.054 337.424 219.375C340.596 220.17 343.183 220.666 345.769 221.162Z" fill="#4C93AB"/>
<path d="M343.678 230.838C351.653 229.243 358.697 234.51 364.811 238.544C368.259 240.819 368.004 245.008 364.308 246.485C360.499 248.008 359.546 250.934 359.22 254.264C358.757 258.989 356.279 261.277 352.236 263.021C346.784 265.372 341.772 268.833 336.307 271.146C331.324 273.254 325.99 274.467 320.711 277.415C322.634 277.908 325.943 278.349 328.266 278.882C325.985 279.872 321.981 281.305 319.224 281.733C314.375 282.487 309.446 282.75 304.539 282.997C303.618 283.043 302.648 282.052 301.701 281.54C301.654 281.029 301.607 280.519 301.56 280.008C305.922 278.577 310.371 277.378 314.629 275.667C324.108 271.857 333.778 268.389 342.846 263.689C356.432 256.647 358.08 242.39 345.682 232.842C345.3 232.549 344.028 231.614 343.678 230.838Z" fill="#45648E"/>
<path d="M360.118 271.408C363.225 268.195 366.618 265.302 370.182 262.69C372.604 260.916 375.492 259.668 378.336 258.715C382.877 257.194 383.811 255.136 381.952 250.53C379.949 245.564 378.549 240.317 376.298 235.488C375.403 233.566 373.069 231.404 371.155 231.131C364.342 230.159 358.292 227.158 352.925 222.297C355.271 222.382 358.209 222.521 360.508 223.509C368.936 227.131 377.675 230.331 385.444 235.17C396.73 242.198 396.649 251.682 386.246 260.015C378.603 266.138 369.741 269.626 360.118 271.408Z" fill="#45648E"/>
<path d="M354.98 223.365C350.938 223.399 327.214 218.288 323.072 217.926C321.965 217.829 322.101 218.924 322.822 218.924C326.555 220.573 332.376 222.831 335.972 224.876C336.057 225.323 334.156 224.898 334.079 224.876C323.873 221.928 313.671 218.964 303.48 215.961C303.266 215.898 303.179 215.372 302.546 214.029C307.048 214.029 311.183 213.546 315.17 214.138C321.929 215.141 361.145 221.763 354.98 223.365Z" fill="#45648E"/>
<path d="M327.239 278.882C331.449 274.302 342.701 273.646 348.815 274.078C347.678 275.059 343.689 277 341.965 277.439C338.304 278.371 329.807 280.483 327.239 278.882Z" fill="#45648E"/>
<path d="M345.687 220.784C343.183 220.666 340.596 220.17 337.759 219.375C340.207 219.52 342.906 219.963 345.687 220.784Z" fill="#45648E"/>
<path d="M350.864 221.796C350.03 222.005 349.124 221.889 348.001 221.488C348.787 221.293 349.789 221.382 350.864 221.796Z" fill="#45648E"/>
<path d="M231.032 250.495C230.66 238.996 236.421 230.948 246.266 228.639C254.452 226.719 263.554 231.405 267.085 239.355C271.734 249.825 267.053 262.079 256.791 266.304C246.904 270.374 235.581 264.742 232.025 253.973C231.693 252.967 231.434 251.934 231.032 250.495ZM263.848 252.588C265.71 244.842 264.073 241.581 257.121 239.15C254.531 238.244 251.992 237.142 249.355 236.433C244.083 235.016 239.534 238.088 238.904 243.545C238.063 250.838 243.454 255.747 245.79 261.828C246.059 262.528 247.89 262.711 249.033 262.896C256.525 264.109 260.178 258.975 263.848 252.588Z" fill="#53AFBA"/>
<path d="M260.482 308.732C261.419 309.959 262.355 311.187 263.418 313.165C262.366 317.496 261.963 321.724 259.817 324.497C256.967 328.181 255.414 331.736 255.161 336.418C255.049 338.476 253.117 340.429 252.012 342.429C250.192 341.164 247.541 340.322 246.706 338.555C244.104 333.044 241.654 327.319 240.263 321.393C239.677 318.899 241.064 314.594 242.994 313.028C247.96 308.999 253.686 305.831 260.482 308.732Z" fill="#4C93AB"/>
<path d="M260.453 308.776C253.701 306.248 247.961 308.999 242.994 313.028C241.064 314.594 239.677 318.899 240.263 321.393C241.654 327.319 244.104 333.044 246.706 338.555C247.541 340.322 250.192 341.164 252.012 342.429C253.117 340.429 255.05 338.476 255.161 336.418C255.414 331.736 256.967 328.181 259.817 324.497C261.963 321.724 261.822 317.075 263.022 313.046C267.196 316.562 266.308 322.251 264.697 326.035C261.098 334.485 256.185 342.331 250.867 350.303C244.361 340.182 235.184 332.184 235.769 319.025C236.115 311.228 241.961 303.858 249.336 302.538C254.129 301.68 258.132 303.501 260.453 308.776Z" fill="#45648E"/>
<path d="M250.543 148.558C257.533 155.019 263.429 162.043 265.105 171.479C267.296 183.813 263.933 194.273 248.231 193.516C240.956 193.165 234.016 185.697 234.933 177.67C236.244 166.189 243.209 157.384 249.331 148.279C249.424 148.139 249.95 148.313 250.543 148.558ZM241.415 168.941C239.057 171.78 235.03 174.279 237.816 178.757C240.007 182.278 242.974 185.317 245.832 188.329C246.779 189.328 249.108 190.481 249.701 190.022C253.972 186.722 258.083 183.161 261.929 179.34C262.701 178.572 262.684 176.02 262.069 174.827C258.927 168.741 255.468 162.831 251.823 156.328C247.975 161.027 244.958 164.712 241.415 168.941Z" fill="#45638E"/>
<path d="M228.586 457.19C227.439 454.473 226.092 451.815 225.219 448.999C223.239 442.618 225.436 437.383 229.977 432.84C233.783 429.033 237.121 424.431 239.632 419.601C241.935 415.173 244.084 410.546 249.186 410.474C254.631 410.396 256.327 415.427 258.053 420.069C260.903 427.728 262.116 435.109 258.732 443.097C255.897 449.789 258.507 455.828 262.767 461.145C263.531 462.097 264.84 462.878 265.071 463.932C265.643 466.554 266.684 469.773 265.714 471.819C264.982 473.365 261.103 474.601 259.203 474C254.06 472.376 250.308 474.354 246.42 477.221C241.852 480.59 238.8 479.425 238.005 473.661C237.081 466.958 234.301 461.608 228.897 457.339C228.577 457.202 228.6 457.177 228.586 457.19Z" fill="#4C94AB"/>
<path d="M263.678 252.964C260.178 258.975 256.526 264.109 249.033 262.896C247.89 262.711 246.059 262.528 245.791 261.828C243.454 255.747 238.063 250.838 238.905 243.545C239.534 238.088 244.083 235.016 249.355 236.433C251.993 237.142 254.532 238.244 257.121 239.15C264.074 241.581 265.71 244.842 263.678 252.964Z" fill="#98D0C5"/>
<path d="M241.678 168.668C244.958 164.712 247.975 161.027 251.823 156.328C255.469 162.831 258.927 168.741 262.069 174.827C262.685 176.02 262.701 178.572 261.929 179.34C258.083 183.161 253.972 186.722 249.701 190.022C249.108 190.481 246.779 189.328 245.832 188.329C242.974 185.317 240.007 182.278 237.816 178.757C235.03 174.279 239.057 171.78 241.678 168.668Z" fill="#4C93AB"/>
</svg>
